<?xml version="1.0" standalone="no"?>
<!DOCTYPE svg PUBLIC "-//W3C//DTD SVG 20010904//EN"
 "http://www.w3.org/TR/2001/REC-SVG-20010904/DTD/svg10.dtd">
<svg version="1.0" xmlns="http://www.w3.org/2000/svg"
 width="693.000000pt" height="311.000000pt" viewBox="0 0 693.000000 311.000000"
 preserveAspectRatio="xMidYMid meet">

<g transform="translate(0.000000,311.000000) scale(0.100000,-0.100000)"
fill="#000000" stroke="none">
<path d="M1220 2603 c-61 -12 -89 -66 -125 -238 -69 -334 -118 -576 -129 -640
-36 -190 -99 -481 -106 -489 -6 -6 -11 -4 -14 5 -10 30 -68 236 -76 269 -51
214 -95 269 -203 257 -60 -8 -80 -25 -118 -99 -38 -76 -81 -107 -187 -134 -8
-2 -12 -27 -12 -79 l0 -75 49 0 c108 0 213 58 254 140 21 40 34 33 50 -27 55
-203 105 -370 128 -424 33 -75 108 -106 183 -75 69 29 84 72 165 471 28 138
73 360 101 495 27 135 50 257 50 272 0 37 10 58 26 58 16 0 29 -41 21 -69 -2
-10 0 -43 4 -72 29 -176 84 -532 119 -769 33 -224 50 -334 66 -420 8 -47 20
-114 26 -150 12 -75 38 -132 70 -154 13 -10 43 -16 74 -16 45 0 56 4 82 31 32
32 32 33 112 389 20 88 57 259 94 439 12 58 27 106 34 109 7 2 12 -1 12 -7 0
-20 52 -95 96 -137 49 -48 150 -84 237 -84 l57 0 0 80 0 80 -30 0 c-39 0 -121
33 -151 60 -9 8 -39 54 -67 101 -56 95 -68 108 -121 126 -48 17 -54 16 -105
-7 -74 -35 -74 -35 -187 -585 -28 -137 -55 -254 -59 -259 -13 -14 -25 52 -96
549 -19 132 -43 296 -54 365 -60 381 -82 520 -91 560 -13 57 -45 123 -69 137
-22 15 -77 22 -110 16z"/>
<path d="M6041 2245 c-176 -32 -337 -164 -405 -331 -94 -230 -68 -529 60 -711
101 -142 252 -217 459 -230 180 -10 330 43 445 158 69 69 75 76 103 126 14 25
46 115 47 131 0 1 -54 2 -119 2 l-119 0 -30 -52 c-29 -51 -105 -134 -120 -132
-4 1 -18 -3 -32 -10 -14 -6 -74 -10 -135 -10 -97 1 -116 4 -165 27 -63 30
-103 69 -146 142 -44 74 -54 120 -54 248 0 142 12 203 55 276 42 71 74 103
143 143 47 27 67 32 146 35 76 4 100 2 147 -16 71 -27 130 -83 164 -155 l26
-56 120 0 c135 0 130 -4 100 83 -41 119 -137 230 -248 286 -112 56 -286 74
-442 46z"/>
<path d="M2883 2232 l-43 -3 0 -615 0 -614 110 0 110 0 0 431 c0 340 3 430 13
427 15 -5 61 -93 87 -167 10 -31 46 -119 80 -196 34 -77 63 -147 65 -155 4
-17 109 -271 128 -310 12 -23 18 -25 85 -25 l73 0 50 120 c27 66 58 140 69
165 10 25 31 74 46 110 15 36 40 94 55 129 16 35 29 68 29 73 0 9 39 103 83
200 45 97 47 79 47 -377 l0 -425 110 0 110 0 0 615 0 615 -77 2 c-184 4 -215
3 -222 -7 -4 -5 -29 -64 -56 -130 -26 -66 -58 -143 -71 -171 -13 -28 -24 -54
-24 -58 0 -3 -8 -25 -19 -49 -10 -23 -29 -67 -41 -97 -12 -30 -31 -74 -41 -97
-11 -23 -19 -45 -19 -48 0 -4 -11 -28 -23 -54 -13 -25 -32 -70 -41 -99 -19
-56 -38 -66 -58 -29 -15 28 -88 203 -135 327 -21 52 -39 97 -43 100 -3 3 -27
61 -54 130 -26 69 -61 158 -76 199 -16 40 -31 75 -34 78 -6 6 -209 10 -273 5z"/>
<path d="M4503 2233 l-53 -4 0 -615 0 -614 294 0 c162 0 329 5 372 11 138 19
235 85 291 198 23 47 27 68 27 140 0 70 -4 95 -24 135 -25 52 -93 126 -116
126 -8 0 -14 4 -14 9 0 5 -13 12 -30 16 -34 8 -42 40 -11 50 30 9 92 77 114
125 16 33 21 64 20 120 -1 127 -51 205 -169 265 -46 23 -76 30 -158 36 -100 8
-443 9 -543 2z m553 -192 c59 -27 89 -91 80 -169 -5 -48 -12 -62 -40 -89 -49
-45 -94 -54 -268 -51 l-153 3 -2 155 c-1 85 1 158 3 162 3 4 80 8 172 8 141 0
173 -3 208 -19z m52 -513 c58 -29 98 -106 89 -171 -9 -71 -16 -89 -39 -114
-46 -50 -78 -56 -286 -57 l-193 -1 0 175 c0 96 0 178 1 183 0 4 86 7 191 7
179 0 195 -2 237 -22z"/>
</g>
</svg>
