<svg width="82" height="70" viewBox="0 0 82 70" fill="none" xmlns="http://www.w3.org/2000/svg">
<path d="M-7.57669e-07 38.1485C0.0181125 40.3884 0.0362257 42.6282 0.0543389 44.8681C4.69403 45.0262 9.49084 42.1377 12.0629 39.1029C12.7245 38.3938 13.3225 37.6952 13.8481 37.1321L13.7089 37.2725C13.9285 37.0628 14.1359 36.8973 14.2686 36.8119C14.3954 36.7215 14.451 36.7494 14.175 36.8017C13.9167 36.8746 13.2294 36.7268 12.9889 36.5152C12.7297 36.3178 12.7751 36.2858 12.8344 36.4097L12.5983 35.8674C14.6989 42.1545 16.7995 48.4415 18.9 54.7286L18.9308 54.8166C19.6941 56.5987 20.7673 59.091 24.7691 59.469C26.6443 59.4724 28.1454 58.3697 28.8939 57.5031C29.7028 56.5606 30.0918 55.8642 30.5313 54.7228L30.6279 54.3902C34.3079 38.7374 37.988 23.0846 41.668 7.43181L41.6503 7.50356C41.782 6.99206 41.9375 6.50306 42.0886 6.14742C42.161 5.97383 42.2408 5.82727 42.2577 5.80365C42.2615 5.79497 42.2581 5.81506 42.1486 5.93187C42.0888 5.99203 42.0078 6.07783 41.8061 6.21829C41.5659 6.33469 41.391 6.63812 40.1546 6.71959C38.6139 6.63582 38.3175 6.04101 38.1487 5.93918C37.9953 5.77853 37.9948 5.75331 37.998 5.76306C38.0182 5.79178 38.1118 5.96668 38.194 6.15857C38.3647 6.54983 38.5474 7.0779 38.6719 7.52764L38.6143 7.28359C42.2786 25.892 45.9428 44.5004 49.6071 63.1087L49.6238 63.1882C49.8547 64.198 50.1244 65.22 50.6936 66.4062C50.9864 66.9924 51.3474 67.6422 52.0233 68.3485C52.6404 69.0141 53.9853 69.9511 55.5993 69.9091C56.8921 69.886 57.7303 69.339 58.2217 68.9647C58.7263 68.5663 59.0159 68.218 59.2636 67.9027C59.7425 67.2742 60.0218 66.7514 60.2782 66.244C60.7786 65.2204 61.1002 64.3657 61.4315 63.3039L61.4808 63.1179C63.7337 53.529 65.9865 43.9401 68.2394 34.3512L67.9448 35.1418C68.0353 34.9655 68.1294 34.8448 68.1362 34.8404C68.1363 34.8388 68.1172 34.8671 68.0094 34.9407C67.9537 34.9774 67.8763 35.0265 67.7317 35.089C67.5578 35.1456 67.4512 35.2523 66.7392 35.2839C65.8071 35.2507 65.6363 35.0407 65.506 34.9955C65.3955 34.932 65.3997 34.9261 65.4206 34.9444C65.4717 34.984 65.6122 35.1139 65.7534 35.2641C66.0354 35.56 66.4022 36.0096 66.6463 36.3407L66.8758 36.6238C67.7663 37.5987 68.6366 38.5089 69.5648 39.4315C70.1591 40.0202 70.7675 40.6044 71.4352 41.1943C72.1677 41.7977 72.6166 42.3333 74.1629 43.1297C75.5866 43.776 76.9622 44.0437 78.2594 44.1755C78.9098 44.2394 79.5427 44.2641 80.1629 44.2623C80.4715 44.2614 80.7801 44.2535 81.077 44.2411C81.2239 44.2349 81.3714 44.2275 81.5067 44.2203C81.6248 44.2134 81.8207 44.2051 81.7451 44.2075C81.7269 41.9676 81.7088 39.7277 81.6907 37.4879C81.3617 37.4942 81.2907 37.5037 81.1497 37.51C81.024 37.5167 80.9087 37.5224 80.7966 37.5271C80.5716 37.5365 80.3546 37.5419 80.1425 37.5425C79.7174 37.5438 79.3081 37.5265 78.918 37.4881C78.1398 37.4134 77.4419 37.2433 76.962 37.0207C77.1064 37.0986 76.8236 36.9359 76.6183 36.7697C76.392 36.5955 76.1373 36.3814 75.8798 36.1543C75.362 35.6973 74.827 35.186 74.2972 34.6607C73.4743 33.8438 72.6252 32.9547 71.8585 32.1151L72.0881 32.3982C71.6048 31.7465 71.1925 31.2413 70.6331 30.6441C70.3519 30.3494 70.0534 30.0489 69.6261 29.7032C69.4071 29.5294 69.1621 29.3431 68.7839 29.1294C68.387 28.9372 67.9235 28.5982 66.6849 28.5643C65.7657 28.6003 65.4573 28.7721 65.0917 28.9095C64.7575 29.053 64.4971 29.2061 64.2697 29.3577C63.8169 29.663 63.4882 29.9715 63.2056 30.2747C62.6486 30.8812 62.2885 31.4634 61.9922 32.0237L61.6977 32.8143C59.4448 42.4032 57.192 51.9921 54.9391 61.581L54.9885 61.3951C54.8123 61.9671 54.5224 62.732 54.2623 63.2499C54.1347 63.5104 53.9908 63.7403 53.9452 63.7954C53.9294 63.8201 53.9298 63.7943 54.0955 63.6609C54.2504 63.5488 54.686 63.2097 55.545 63.1896C55.5304 63.1889 55.6791 63.1906 55.7699 63.202C55.8675 63.2124 55.9677 63.2305 56.0541 63.2519C56.2319 63.2958 56.3755 63.3555 56.4857 63.4122C56.707 63.5282 56.8009 63.6245 56.8411 63.664C56.9146 63.7477 56.8153 63.6373 56.7298 63.4532C56.5394 63.069 56.3354 62.4224 56.1837 61.731L56.2003 61.8104C52.536 43.2021 48.8717 24.5937 45.2075 5.98529L45.1499 5.74124C44.9286 4.95486 44.6942 4.26479 44.3554 3.47654C44.1807 3.08085 43.993 2.67439 43.6702 2.16006C43.501 1.89936 43.3117 1.61086 42.9339 1.22142C42.5432 0.897051 41.969 0.084454 40.1003 9.41145e-06C38.7024 0.0858626 38.3788 0.470456 38.0084 0.674567C37.675 0.905576 37.4749 1.09958 37.3036 1.27556C36.9729 1.6233 36.7793 1.90309 36.6095 2.16312C36.2802 2.67882 36.0787 3.11175 35.9009 3.52671C35.5551 4.35005 35.3342 5.09451 35.1443 5.82215L35.1266 5.89389C31.4465 21.5467 27.7665 37.1995 24.0864 52.8523L24.1829 52.5197C24.2184 52.4228 24.1614 52.5702 24.1381 52.6144C24.1077 52.6781 24.0741 52.7417 24.0417 52.7977C23.9771 52.9101 23.913 52.9933 23.8907 53.0172C23.869 53.0434 23.8923 53.0007 24.0358 52.9198C24.1723 52.8395 24.4582 52.747 24.7147 52.7494C25.0485 52.7528 25.1304 52.7898 25.2229 52.8123C25.305 52.8368 25.351 52.8585 25.3854 52.8761C25.4517 52.9112 25.4673 52.9315 25.4609 52.9246C25.4463 52.9134 25.3371 52.7752 25.2427 52.5112L25.2735 52.5992C23.1729 46.3121 21.0724 40.0251 18.9718 33.738L18.7358 33.1957C18.3678 32.538 17.8737 31.7593 16.8842 31.0396C15.9203 30.2978 14.2949 29.9388 13.1538 30.1599C10.8579 30.6235 9.97859 31.6252 9.07728 32.4039L8.9381 32.5444C8.25343 33.281 7.69802 33.9326 7.14742 34.521C4.9075 36.9738 2.80846 38.1321 -7.57669e-07 38.1485Z" fill="#31B0FF"/>
</svg>
